<svg width="130" height="130" viewBox="0 0 130 130" fill="none" xmlns="http://www.w3.org/2000/svg">
<g filter="url(#filter0_d_949_6656)">
<circle cx="65" cy="61" r="50" fill="#1F99DE"/>
</g>
<path d="M66.3282 88.0004C60.1949 88.0004 52.5517 86.2076 43.7527 80.4281C40.7568 78.4465 39.6716 74.5778 41.2286 71.3931L58.0954 42.4719C59.6759 39.2165 62.5538 36.6924 65.998 35.6073C69.7488 34.4278 75.6227 34.239 80.9068 37.2821C85.6484 40.0186 88.9274 44.9017 90.3663 51.4125C90.4371 51.7663 90.3663 52.1438 90.1304 52.4269C89.8946 52.7099 89.6351 52.8751 89.1868 52.8515C86.7335 52.7807 84.4453 52.9694 82.3694 53.4884L82.4165 79.107C82.4165 81.8907 80.7888 84.4148 78.2647 85.5471C75.5283 86.7266 71.4708 88.0004 66.3282 88.0004ZM66.1395 85.6414C66.2103 85.6414 66.2811 85.6414 66.3282 85.6414C71.0698 85.6414 74.797 84.4855 77.2739 83.3768C78.9488 82.6219 80.034 80.9471 80.034 79.107L79.9868 54.2197C77.8401 55.0453 75.9529 56.2484 74.3252 57.8289C68.8995 63.0659 66.1395 72.4075 66.1395 85.6414ZM71.4237 37.1878C69.6072 37.1878 67.9795 37.4709 66.7057 37.8719C63.8749 38.7447 61.5159 40.8442 60.1713 43.5806L43.3045 72.5255C42.3137 74.5778 43.045 77.1491 45.0501 78.4701C52.1979 83.1645 58.52 85.0753 63.7805 85.5235C63.8041 71.6998 66.8 61.8156 72.6975 56.1305C76.5191 52.4269 81.5673 50.5397 87.7007 50.4453C86.2853 45.2791 83.596 41.5283 79.7273 39.3109C76.9909 37.7539 74.0421 37.1878 71.4237 37.1878Z" fill="#E9ECF1"/>
<path d="M49.0849 60.7781C48.7311 60.7781 48.4008 60.6365 48.1649 60.3299L41.6777 52.3093C40.1915 50.4693 40.1208 48.0395 41.489 46.1288C42.8572 44.1944 45.1926 43.4867 47.4101 44.3123L55.006 47.1195C55.6193 47.3554 55.926 48.0159 55.7137 48.6293C55.4778 49.2426 54.8173 49.5493 54.2039 49.337L46.5844 46.5298C45.1454 45.9872 43.9895 46.6949 43.3998 47.497C42.81 48.3226 42.5269 49.6201 43.4941 50.8231L49.9814 58.8673C50.3824 59.3627 50.3116 60.1176 49.8162 60.5186C49.6039 60.6837 49.3444 60.7781 49.0849 60.7781Z" fill="#E9ECF1"/>
<path d="M69.1366 45.1609C70.0877 45.1609 70.8587 44.3899 70.8587 43.4389C70.8587 42.4878 70.0877 41.7168 69.1366 41.7168C68.1855 41.7168 67.4146 42.4878 67.4146 43.4389C67.4146 44.3899 68.1855 45.1609 69.1366 45.1609Z" fill="#E9ECF1"/>
<defs>
<filter id="filter0_d_949_6656" x="0" y="0" width="130" height="130" filterUnits="userSpaceOnUse" color-interpolation-filters="sRGB">
<feFlood flood-opacity="0" result="BackgroundImageFix"/>
<feColorMatrix in="SourceAlpha" type="matrix" values="0 0 0 0 0 0 0 0 0 0 0 0 0 0 0 0 0 0 127 0" result="hardAlpha"/>
<feOffset dy="4"/>
<feGaussianBlur stdDeviation="7.5"/>
<feComposite in2="hardAlpha" operator="out"/>
<feColorMatrix type="matrix" values="0 0 0 0 0.11138 0 0 0 0 0.250629 0 0 0 0 0.379167 0 0 0 0.2 0"/>
<feBlend mode="normal" in2="BackgroundImageFix" result="effect1_dropShadow_949_6656"/>
<feBlend mode="normal" in="SourceGraphic" in2="effect1_dropShadow_949_6656" result="shape"/>
</filter>
</defs>
</svg>
