<svg width="24" height="24" viewBox="0 0 24 24" fill="none" xmlns="http://www.w3.org/2000/svg">
<path d="M16.5 19C16.5 19.2761 16.7239 19.5 17 19.5C17.2761 19.5 17.5 19.2761 17.5 19H16.5ZM17.3536 4.64645C17.1583 4.45118 16.8417 4.45118 16.6464 4.64645L13.4645 7.82843C13.2692 8.02369 13.2692 8.34027 13.4645 8.53553C13.6597 8.7308 13.9763 8.7308 14.1716 8.53553L17 5.70711L19.8284 8.53553C20.0237 8.7308 20.3403 8.7308 20.5355 8.53553C20.7308 8.34027 20.7308 8.02369 20.5355 7.82843L17.3536 4.64645ZM17.5 19V5H16.5V19H17.5Z" fill="#262A39"/>
<path d="M7.5 5C7.5 4.72386 7.27614 4.5 7 4.5C6.72386 4.5 6.5 4.72386 6.5 5L7.5 5ZM6.64645 19.3536C6.84171 19.5488 7.15829 19.5488 7.35355 19.3536L10.5355 16.1716C10.7308 15.9763 10.7308 15.6597 10.5355 15.4645C10.3403 15.2692 10.0237 15.2692 9.82843 15.4645L7 18.2929L4.17157 15.4645C3.97631 15.2692 3.65973 15.2692 3.46447 15.4645C3.2692 15.6597 3.2692 15.9763 3.46447 16.1716L6.64645 19.3536ZM6.5 5L6.5 19L7.5 19L7.5 5L6.5 5Z" fill="#262A39"/>
</svg>
