<svg width="24" height="24" viewBox="0 0 24 24" fill="none" xmlns="http://www.w3.org/2000/svg">
<path fill-rule="evenodd" clip-rule="evenodd" d="M5.32011 7.82043C3.90522 8.96538 3.00195 10.5074 3.00195 12.24C3.00195 14.1229 4.06882 15.7808 5.69982 16.9485C7.33173 18.1169 9.56067 18.824 11.9997 18.824C13.4037 18.824 14.7382 18.5897 15.9291 18.1679L15.121 17.3798C14.1648 17.6649 13.1107 17.824 11.9997 17.824C9.74558 17.824 7.72564 17.1691 6.28196 16.1355C4.83738 15.1012 4.00195 13.7172 4.00195 12.24C4.00195 10.8467 4.74513 9.53635 6.04163 8.52416L5.32011 7.82043ZM17.9577 15.9559C19.2543 14.9437 19.9975 13.6332 19.9975 12.24C19.9975 10.7628 19.1621 9.37875 17.7175 8.34451C16.2738 7.3109 14.2539 6.65601 11.9997 6.65601C10.8887 6.65601 9.83457 6.8151 8.87829 7.10022L8.0702 6.31205C9.2612 5.89031 10.5957 5.65601 11.9997 5.65601C14.4388 5.65601 16.6677 6.36305 18.2996 7.53141C19.9306 8.69913 20.9975 10.3571 20.9975 12.24C20.9975 13.9726 20.0942 15.5146 18.6792 16.6596L17.9577 15.9559Z" fill="#262A39"/>
<path fill-rule="evenodd" clip-rule="evenodd" d="M9.00276 11.4123C8.92653 11.6755 8.88574 11.9531 8.88574 12.24C8.88574 13.9173 10.2799 15.2771 11.9996 15.2771C12.2937 15.2771 12.5784 15.2373 12.8481 15.1629L9.00276 11.4123ZM14.9964 13.0676C15.0726 12.8045 15.1134 12.5269 15.1134 12.24C15.1134 10.5626 13.7193 9.20288 11.9996 9.20288C11.7054 9.20288 11.4208 9.24266 11.1511 9.31701L14.9964 13.0676Z" fill="#262A39"/>
<path d="M18.9104 19L4.55664 5" stroke="#262A39" stroke-miterlimit="10" stroke-linecap="round"/>
</svg>
