<svg width="24" height="24" viewBox="0 0 24 24" fill="none" xmlns="http://www.w3.org/2000/svg">
<path d="M2 17.788L6.65408 5H8.38401L13.3394 17.7763H11.5091L10.0916 13.9022H5.03575L3.70761 17.7763H2V17.788ZM5.49335 12.5362H9.60054L8.33937 9.00362C7.9599 7.92029 7.66972 7.03713 7.47998 6.34239C7.32373 7.16666 7.11167 7.97916 6.83265 8.79166L5.49335 12.5362Z" fill="#262A39"/>
<path d="M20.1588 16.646C19.612 17.1406 19.0762 17.4939 18.5628 17.694C18.0494 17.8942 17.5026 18.0002 16.9222 18.0002C15.9624 18.0002 15.2146 17.7529 14.7012 17.2583C14.1878 16.7638 13.9199 16.1279 13.9199 15.3507C13.9199 14.8915 14.0204 14.4794 14.2101 14.1026C14.411 13.7257 14.6677 13.4314 14.9802 13.1959C15.2927 12.9721 15.6499 12.7955 16.0516 12.6777C16.3418 12.5953 16.7883 12.5129 17.3686 12.4422C18.574 12.2891 19.4557 12.1125 20.0249 11.9006C20.0249 11.6886 20.0361 11.5473 20.0361 11.4884C20.0361 10.8526 19.891 10.3933 19.612 10.1343C19.2325 9.781 18.6633 9.60437 17.9155 9.60437C17.2124 9.60437 16.699 9.7339 16.3641 9.99296C16.0293 10.252 15.7838 10.7113 15.6275 11.3707L14.1766 11.1587C14.3106 10.4993 14.5226 9.96941 14.824 9.56904C15.1253 9.16868 15.5606 8.85075 16.1409 8.63879C16.7101 8.41506 17.3798 8.30908 18.1276 8.30908C18.8753 8.30908 19.4892 8.40328 19.9579 8.59169C20.4267 8.7801 20.7727 9.0156 20.9847 9.29821C21.208 9.58082 21.3642 9.93408 21.4535 10.3698C21.4981 10.6406 21.5316 11.1234 21.5316 11.8181V13.9141C21.5316 15.3743 21.5651 16.2928 21.6209 16.6814C21.6879 17.0699 21.8107 17.435 22.0004 17.7882H20.449C20.3039 17.4585 20.2035 17.0817 20.1588 16.646ZM20.0361 13.137C19.5004 13.3725 18.6856 13.5727 17.603 13.7257C16.9892 13.8199 16.5539 13.9259 16.3083 14.0437C16.0516 14.1614 15.8619 14.3263 15.7168 14.55C15.5829 14.7737 15.5159 15.021 15.5159 15.2919C15.5159 15.7158 15.661 16.0573 15.9624 16.3399C16.2637 16.6225 16.699 16.7638 17.2793 16.7638C17.8485 16.7638 18.3619 16.6343 18.8084 16.3634C19.2548 16.1044 19.5785 15.7393 19.7905 15.2801C19.9468 14.9268 20.0249 14.3969 20.0249 13.714V13.137H20.0361Z" fill="#262A39"/>
</svg>
