<svg width="107" height="24" viewBox="0 0 107 24" fill="none" xmlns="http://www.w3.org/2000/svg">
<path d="M38.672 4.224C38.672 4.77629 38.2243 5.224 37.672 5.224H32.232C31.6797 5.224 31.232 5.67172 31.232 6.224L31.232 10C31.232 10.5523 31.6797 11 32.232 11H37.36C37.9123 11 38.36 11.4477 38.36 12V12.112C38.36 12.6643 37.9123 13.112 37.36 13.112H32.232C31.6797 13.112 31.232 13.5597 31.232 14.112L31.232 19.112C31.232 19.6643 30.7843 20.112 30.232 20.112H30C29.4477 20.112 29 19.6643 29 19.112V4.112C29 3.55972 29.4477 3.112 30 3.112H37.672C38.2243 3.112 38.672 3.55972 38.672 4.112V4.224Z" fill="#262A39"/>
<path d="M49.412 8.8C49.412 8.24772 49.8597 7.8 50.412 7.8H50.5C51.0523 7.8 51.5 8.24772 51.5 8.8V18.8C51.5 19.3523 51.0523 19.8 50.5 19.8H49.7965C49.5842 19.8 49.412 19.6278 49.412 19.4155C49.412 19.0289 48.8409 18.8419 48.5485 19.0947C47.7637 19.7729 46.7556 20.112 45.524 20.112C44.116 20.112 42.988 19.672 42.14 18.792C41.292 17.896 40.868 16.688 40.868 15.168V8.8C40.868 8.24772 41.3157 7.8 41.868 7.8H41.956C42.5083 7.8 42.956 8.24772 42.956 8.8V15.048C42.956 16.024 43.22 16.784 43.748 17.328C44.276 17.856 45.004 18.12 45.932 18.12C46.972 18.12 47.812 17.8 48.452 17.16C49.092 16.504 49.412 15.504 49.412 14.16V8.8Z" fill="#262A39"/>
<path d="M60.476 7.8C61.884 7.8 63.012 8.248 63.86 9.144C64.708 10.024 65.132 11.224 65.132 12.744V19.112C65.132 19.6643 64.6843 20.112 64.132 20.112H64.044C63.4917 20.112 63.044 19.6643 63.044 19.112V12.864C63.044 11.888 62.78 11.136 62.252 10.608C61.724 10.064 60.996 9.792 60.068 9.792C59.028 9.792 58.188 10.12 57.548 10.776C56.908 11.416 56.588 12.408 56.588 13.752V19.112C56.588 19.6643 56.1403 20.112 55.588 20.112H55.5C54.9477 20.112 54.5 19.6643 54.5 19.112V9.112C54.5 8.55972 54.9477 8.112 55.5 8.112H56.2035C56.4158 8.112 56.588 8.28416 56.588 8.49653C56.588 8.88308 57.1591 9.07005 57.4515 8.8173C58.2363 8.1391 59.2444 7.8 60.476 7.8Z" fill="#262A39"/>
<path d="M78.2208 3.312C78.773 3.312 79.2208 3.75972 79.2208 4.312V4.424C79.2208 4.97628 78.773 5.424 78.2208 5.424H75.2528C74.7005 5.424 74.2528 5.87172 74.2528 6.424V19.112C74.2528 19.6643 73.805 20.112 73.2528 20.112H73.0448C72.4925 20.112 72.0448 19.6643 72.0448 19.112V6.424C72.0448 5.87172 71.597 5.424 71.0448 5.424H68.1007C67.5485 5.424 67.1007 4.97628 67.1007 4.424V4.312C67.1007 3.75972 67.5485 3.312 68.1007 3.312H78.2208Z" fill="#262A39"/>
<path d="M88.97 8.27502C88.97 8.01267 89.1827 7.8 89.445 7.8H90.058C90.6103 7.8 91.058 8.24772 91.058 8.8V18.8C91.058 19.3523 90.6103 19.8 90.058 19.8H89.445C89.1827 19.8 88.97 19.5873 88.97 19.325C88.97 18.8533 88.2884 18.6241 87.9286 18.9292C86.9987 19.7177 85.8339 20.112 84.434 20.112C82.754 20.112 81.322 19.504 80.138 18.288C78.954 17.056 78.362 15.56 78.362 13.8C78.362 12.04 78.954 10.552 80.138 9.336C81.322 8.104 82.754 7.488 84.434 7.488C85.8339 7.488 86.9987 7.88228 87.9286 8.67084C88.2884 8.97593 88.97 8.74673 88.97 8.27502ZM84.698 18.096C85.914 18.096 86.93 17.688 87.746 16.872C88.562 16.04 88.97 15.016 88.97 13.8C88.97 12.584 88.562 11.568 87.746 10.752C86.93 9.92 85.914 9.504 84.698 9.504C83.498 9.504 82.49 9.92 81.674 10.752C80.858 11.568 80.45 12.584 80.45 13.8C80.45 15.016 80.858 16.04 81.674 16.872C82.49 17.688 83.498 18.096 84.698 18.096Z" fill="#262A39"/>
<path d="M100.845 7.48806C102.525 7.48806 103.957 8.10406 105.141 9.33606C106.325 10.5521 106.917 12.0401 106.917 13.8001C106.917 15.5601 106.325 17.0561 105.141 18.2881C103.957 19.5041 102.525 20.1121 100.845 20.1121C99.4456 20.1121 98.2808 19.7178 97.3509 18.9292C96.9911 18.6241 96.3095 18.8533 96.3095 19.325C96.3095 19.5874 96.0968 19.8001 95.8345 19.8001H95.2215C94.6692 19.8001 94.2215 19.3523 94.2215 18.8001V4.00006C94.2215 3.44777 94.6692 3.00006 95.2215 3.00006H95.3095C95.8618 3.00006 96.3095 3.44777 96.3095 4.00006V6.51896C96.3095 7.512 97.9292 8.13247 98.866 7.80307C99.4633 7.59306 100.123 7.48806 100.845 7.48806ZM100.581 18.0961C101.781 18.0961 102.789 17.6881 103.605 16.8721C104.422 16.0401 104.829 15.0161 104.829 13.8001C104.829 12.5841 104.422 11.5681 103.605 10.7521C102.789 9.92006 101.781 9.50406 100.581 9.50406C99.3655 9.50406 98.3495 9.92006 97.5335 10.7521C96.7175 11.5681 96.3095 12.5841 96.3095 13.8001C96.3095 15.0161 96.7175 16.0401 97.5335 16.8721C98.3495 17.6881 99.3655 18.0961 100.581 18.0961Z" fill="#262A39"/>
<g clip-path="url(#clip0_544_2647)">
<path d="M19.83 0H11.9997C8.7955 0.000541492 5.78034 1.24868 3.51409 3.51428C1.37565 5.65317 0.143699 8.45702 0.0115691 11.4601C-0.141138 14.9316 1.22402 18.317 3.74424 20.7094C5.98287 22.8336 8.90164 24 11.9997 24V24C12.538 24 12.9744 23.5636 12.9744 23.0253V19.4871C12.9744 18.9348 13.4221 18.4871 13.9744 18.4871H17.5129C18.0512 18.4871 18.4876 18.0507 18.4876 17.5124V17.5124C18.4876 16.5976 18.2972 15.7266 17.9541 14.9367C17.6012 14.1241 18.1253 12.9747 19.0112 12.9747H23.0002C23.5525 12.9747 24.0002 12.527 24.0002 11.9747V4.17003C24.0002 1.86706 22.1336 0 19.83 0ZM11.9997 11.9999C11.9997 12.5382 12.4412 12.9637 12.9672 13.0783C14.2808 13.3644 15.384 14.2214 16.0025 15.3752C16.3043 15.9381 15.8279 16.5377 15.1892 16.5377H12.0244C11.4721 16.5377 11.0244 16.9854 11.0244 17.5377V20.9023C11.0244 21.4926 10.5136 21.9586 9.93585 21.8376C5.38012 20.8838 1.94857 16.8348 1.94857 12C1.94857 6.45938 6.45486 1.95121 11.995 1.94883C11.9959 1.94883 11.9969 1.94892 11.9978 1.9491V1.9491C11.9987 1.94928 11.9996 1.94937 12.0005 1.94937H19.8294C21.056 1.94937 22.0502 2.94355 22.0502 4.17003V10.0253C22.0502 10.5776 21.6025 11.0253 21.0502 11.0253H12.9742C12.436 11.0253 11.9997 11.4616 11.9997 11.9999V11.9999Z" fill="#1F99DE"/>
<path d="M14.7564 3.37793C13.0319 3.37793 11.5775 4.5534 11.1516 6.1449C11.0124 6.66492 11.4617 7.1088 12.0001 7.1088V7.1088C12.5384 7.1088 12.9544 6.6414 13.2352 6.18211C13.5484 5.66988 14.1129 5.3273 14.7564 5.3273C15.3995 5.3273 15.9642 5.66989 16.2775 6.18214C16.5583 6.6414 16.9744 7.1088 17.5127 7.1088V7.1088C18.051 7.1088 18.5004 6.66492 18.3612 6.1449C17.9352 4.5534 16.4804 3.37793 14.7564 3.37793Z" fill="#1F99DE"/>
</g>
<defs>
<clipPath id="clip0_544_2647">
<rect width="24" height="24" fill="white"/>
</clipPath>
</defs>
</svg>
