<svg width="24" height="24" viewBox="0 0 24 24" fill="none" xmlns="http://www.w3.org/2000/svg">
<path d="M19.83 0H11.9997C8.7955 0.000541492 5.78034 1.24868 3.51409 3.51428C1.37565 5.65317 0.143699 8.45702 0.0115691 11.4601C-0.141138 14.9316 1.22402 18.317 3.74424 20.7094C5.98287 22.8336 8.90164 24 11.9997 24C12.538 24 12.9744 23.5636 12.9744 23.0253V19.4871C12.9744 18.9348 13.4221 18.4871 13.9744 18.4871H17.5129C18.0512 18.4871 18.4876 18.0507 18.4876 17.5124C18.4876 16.5976 18.2972 15.7266 17.9541 14.9367C17.6012 14.1241 18.1253 12.9747 19.0112 12.9747H23.0002C23.5525 12.9747 24.0002 12.527 24.0002 11.9747V4.17003C24.0002 1.86706 22.1336 0 19.83 0ZM11.9997 11.9999C11.9997 12.5382 12.4412 12.9637 12.9672 13.0783C14.2808 13.3644 15.384 14.2214 16.0025 15.3752C16.3043 15.9381 15.8279 16.5377 15.1892 16.5377H12.0244C11.4721 16.5377 11.0244 16.9854 11.0244 17.5377V20.9023C11.0244 21.4926 10.5136 21.9586 9.93585 21.8376C5.38012 20.8838 1.94857 16.8348 1.94857 12C1.94857 6.45938 6.45486 1.95121 11.995 1.94883C11.9959 1.94883 11.9969 1.94892 11.9978 1.9491C11.9987 1.94928 11.9996 1.94937 12.0005 1.94937H19.8294C21.056 1.94937 22.0502 2.94355 22.0502 4.17003V10.0253C22.0502 10.5776 21.6025 11.0253 21.0502 11.0253H12.9742C12.436 11.0253 11.9997 11.4616 11.9997 11.9999Z" fill="#1F99DE"/>
<path d="M14.7564 3.37793C13.0319 3.37793 11.5775 4.5534 11.1516 6.1449C11.0124 6.66492 11.4617 7.1088 12.0001 7.1088C12.5384 7.1088 12.9544 6.6414 13.2352 6.18211C13.5484 5.66988 14.1129 5.3273 14.7564 5.3273C15.3995 5.3273 15.9642 5.66989 16.2775 6.18214C16.5583 6.6414 16.9744 7.1088 17.5127 7.1088C18.051 7.1088 18.5004 6.66492 18.3612 6.1449C17.9352 4.5534 16.4804 3.37793 14.7564 3.37793Z" fill="#1F99DE"/>
</svg>
