<svg width="399" height="70" viewBox="0 0 399 70" fill="none" xmlns="http://www.w3.org/2000/svg">
<rect x="259" y="9" width="119" height="50" rx="25" fill="#F1F1F1"/>
<path d="M316.306 37.7656C316.306 37.4668 316.259 37.2031 316.165 36.9746C316.077 36.7402 315.919 36.5293 315.69 36.3418C315.468 36.1543 315.157 35.9756 314.759 35.8057C314.366 35.6357 313.868 35.4629 313.265 35.2871C312.632 35.0996 312.061 34.8916 311.551 34.6631C311.041 34.4287 310.604 34.1621 310.241 33.8633C309.878 33.5645 309.6 33.2217 309.406 32.835C309.213 32.4482 309.116 32.0059 309.116 31.5078C309.116 31.0098 309.219 30.5498 309.424 30.1279C309.629 29.7061 309.922 29.3398 310.303 29.0293C310.689 28.7129 311.149 28.4668 311.683 28.291C312.216 28.1152 312.811 28.0273 313.467 28.0273C314.428 28.0273 315.242 28.2119 315.91 28.5811C316.584 28.9443 317.097 29.4219 317.448 30.0137C317.8 30.5996 317.976 31.2266 317.976 31.8945H316.288C316.288 31.4141 316.186 30.9893 315.98 30.6201C315.775 30.2451 315.465 29.9521 315.049 29.7412C314.633 29.5244 314.105 29.416 313.467 29.416C312.863 29.416 312.365 29.5068 311.973 29.6885C311.58 29.8701 311.287 30.1162 311.094 30.4268C310.906 30.7373 310.812 31.0918 310.812 31.4902C310.812 31.7598 310.868 32.0059 310.979 32.2285C311.097 32.4453 311.275 32.6475 311.516 32.835C311.762 33.0225 312.072 33.1953 312.447 33.3535C312.828 33.5117 313.282 33.6641 313.81 33.8105C314.536 34.0156 315.163 34.2441 315.69 34.4961C316.218 34.748 316.651 35.0322 316.991 35.3486C317.337 35.6592 317.592 36.0137 317.756 36.4121C317.926 36.8047 318.011 37.25 318.011 37.748C318.011 38.2695 317.905 38.7412 317.694 39.1631C317.483 39.585 317.182 39.9453 316.789 40.2441C316.396 40.543 315.925 40.7744 315.374 40.9385C314.829 41.0967 314.22 41.1758 313.546 41.1758C312.954 41.1758 312.371 41.0938 311.797 40.9297C311.229 40.7656 310.71 40.5195 310.241 40.1914C309.778 39.8633 309.406 39.459 309.125 38.9785C308.85 38.4922 308.712 37.9297 308.712 37.291H310.399C310.399 37.7305 310.484 38.1084 310.654 38.4248C310.824 38.7354 311.056 38.9932 311.349 39.1982C311.647 39.4033 311.984 39.5557 312.359 39.6553C312.74 39.749 313.136 39.7959 313.546 39.7959C314.138 39.7959 314.639 39.7139 315.049 39.5498C315.459 39.3857 315.77 39.1514 315.98 38.8467C316.197 38.542 316.306 38.1816 316.306 37.7656ZM321.693 31.4902V41H320.059V31.4902H321.693ZM319.936 28.9678C319.936 28.7041 320.015 28.4814 320.173 28.2998C320.337 28.1182 320.577 28.0273 320.894 28.0273C321.204 28.0273 321.441 28.1182 321.605 28.2998C321.775 28.4814 321.86 28.7041 321.86 28.9678C321.86 29.2197 321.775 29.4365 321.605 29.6182C321.441 29.7939 321.204 29.8818 320.894 29.8818C320.577 29.8818 320.337 29.7939 320.173 29.6182C320.015 29.4365 319.936 29.2197 319.936 28.9678ZM330.465 31.4902H331.941V40.7979C331.941 41.6357 331.771 42.3506 331.432 42.9424C331.092 43.5342 330.617 43.9824 330.008 44.2871C329.404 44.5977 328.707 44.7529 327.916 44.7529C327.588 44.7529 327.201 44.7002 326.756 44.5947C326.316 44.4951 325.883 44.3223 325.455 44.0762C325.033 43.8359 324.679 43.5107 324.392 43.1006L325.244 42.1338C325.643 42.6143 326.059 42.9482 326.492 43.1357C326.932 43.3232 327.365 43.417 327.793 43.417C328.309 43.417 328.754 43.3203 329.129 43.127C329.504 42.9336 329.794 42.6465 329.999 42.2656C330.21 41.8906 330.315 41.4277 330.315 40.877V33.582L330.465 31.4902ZM323.917 36.3506V36.166C323.917 35.4395 324.002 34.7803 324.172 34.1885C324.348 33.5908 324.597 33.0781 324.919 32.6504C325.247 32.2227 325.643 31.8945 326.105 31.666C326.568 31.4316 327.09 31.3145 327.67 31.3145C328.268 31.3145 328.789 31.4199 329.234 31.6309C329.686 31.8359 330.066 32.1377 330.377 32.5361C330.693 32.9287 330.942 33.4033 331.124 33.96C331.306 34.5166 331.432 35.1465 331.502 35.8496V36.6582C331.438 37.3555 331.312 37.9824 331.124 38.5391C330.942 39.0957 330.693 39.5703 330.377 39.9629C330.066 40.3555 329.686 40.6572 329.234 40.8682C328.783 41.0732 328.256 41.1758 327.652 41.1758C327.084 41.1758 326.568 41.0557 326.105 40.8154C325.648 40.5752 325.256 40.2383 324.928 39.8047C324.6 39.3711 324.348 38.8613 324.172 38.2754C324.002 37.6836 323.917 37.042 323.917 36.3506ZM325.543 36.166V36.3506C325.543 36.8252 325.59 37.2705 325.684 37.6865C325.783 38.1025 325.933 38.4688 326.132 38.7852C326.337 39.1016 326.598 39.3506 326.914 39.5322C327.23 39.708 327.608 39.7959 328.048 39.7959C328.587 39.7959 329.032 39.6816 329.384 39.4531C329.735 39.2246 330.014 38.9229 330.219 38.5479C330.43 38.1729 330.594 37.7656 330.711 37.3262V35.208C330.646 34.8857 330.547 34.5752 330.412 34.2764C330.283 33.9717 330.113 33.7021 329.902 33.4678C329.697 33.2275 329.442 33.0371 329.138 32.8965C328.833 32.7559 328.476 32.6855 328.065 32.6855C327.62 32.6855 327.236 32.7793 326.914 32.9668C326.598 33.1484 326.337 33.4004 326.132 33.7227C325.933 34.0391 325.783 34.4082 325.684 34.8301C325.59 35.2461 325.543 35.6914 325.543 36.166ZM336.037 33.5205V41H334.411V31.4902H335.949L336.037 33.5205ZM335.65 35.8848L334.974 35.8584C334.979 35.208 335.076 34.6074 335.264 34.0566C335.451 33.5 335.715 33.0166 336.055 32.6064C336.395 32.1963 336.799 31.8799 337.268 31.6572C337.742 31.4287 338.267 31.3145 338.841 31.3145C339.31 31.3145 339.731 31.3789 340.106 31.5078C340.481 31.6309 340.801 31.8301 341.064 32.1055C341.334 32.3809 341.539 32.7383 341.68 33.1777C341.82 33.6113 341.891 34.1416 341.891 34.7686V41H340.256V34.751C340.256 34.2529 340.183 33.8545 340.036 33.5557C339.89 33.251 339.676 33.0312 339.395 32.8965C339.113 32.7559 338.768 32.6855 338.357 32.6855C337.953 32.6855 337.584 32.7705 337.25 32.9404C336.922 33.1104 336.638 33.3447 336.397 33.6436C336.163 33.9424 335.979 34.2852 335.844 34.6719C335.715 35.0527 335.65 35.457 335.65 35.8848ZM350.891 28.2031V41H349.194V28.2031H350.891ZM355.355 33.5205V41H353.729V31.4902H355.268L355.355 33.5205ZM354.969 35.8848L354.292 35.8584C354.298 35.208 354.395 34.6074 354.582 34.0566C354.77 33.5 355.033 33.0166 355.373 32.6064C355.713 32.1963 356.117 31.8799 356.586 31.6572C357.061 31.4287 357.585 31.3145 358.159 31.3145C358.628 31.3145 359.05 31.3789 359.425 31.5078C359.8 31.6309 360.119 31.8301 360.383 32.1055C360.652 32.3809 360.857 32.7383 360.998 33.1777C361.139 33.6113 361.209 34.1416 361.209 34.7686V41H359.574V34.751C359.574 34.2529 359.501 33.8545 359.354 33.5557C359.208 33.251 358.994 33.0312 358.713 32.8965C358.432 32.7559 358.086 32.6855 357.676 32.6855C357.271 32.6855 356.902 32.7705 356.568 32.9404C356.24 33.1104 355.956 33.3447 355.716 33.6436C355.481 33.9424 355.297 34.2852 355.162 34.6719C355.033 35.0527 354.969 35.457 354.969 35.8848Z" fill="black"/>
<path d="M286.006 36.3573C282.776 36.3573 280.148 33.7813 280.148 30.6162C280.148 27.451 282.776 24.875 286.006 24.875C289.236 24.875 291.865 27.451 291.865 30.6162C291.853 33.7813 289.224 36.3573 286.006 36.3573ZM286.006 26.0302C283.425 26.0302 281.326 28.0864 281.326 30.6162C281.326 33.146 283.425 35.2022 286.006 35.2022C288.588 35.2022 290.686 33.146 290.686 30.6162C290.686 28.0864 288.576 26.0302 286.006 26.0302Z" fill="black"/>
<path d="M295 45.125H277V42.6991C277 39.9499 279.287 37.7088 282.104 37.7088H289.908C292.713 37.7088 295 39.9499 295 42.6991V45.125ZM278.179 43.9698H293.821V42.6991C293.821 40.5852 292.065 38.864 289.908 38.864H282.104C279.947 38.864 278.179 40.5852 278.179 42.6991V43.9698Z" fill="black"/>
</svg>
