<svg width="24" height="24" viewBox="0 0 24 24" fill="none" xmlns="http://www.w3.org/2000/svg">
<path d="M12 17C14.7614 17 17 14.7614 17 12C17 9.23858 14.7614 7 12 7C9.23857 7 7 9.23858 7 12C7 14.7614 9.23857 17 12 17Z" stroke="#262A39" stroke-miterlimit="10" stroke-linejoin="round"/>
<path d="M13.5942 20.7052C13.5942 21.422 13.0145 22 12.2957 22H11.7043C10.9855 22 10.4058 21.422 10.4058 20.7052C10.4058 20.1618 10.0696 19.6647 9.54784 19.4913C9.16523 19.3642 8.80579 19.2139 8.44637 19.0405C7.95942 18.7861 7.36813 18.9017 6.97392 19.2832C6.46378 19.7919 5.65218 19.7919 5.14204 19.2832L4.71304 18.8555C4.20289 18.3468 4.20289 17.5376 4.71304 17.0289L4.72464 17.0173C5.10725 16.6358 5.2232 16.0347 4.97972 15.5491C4.80581 15.2023 4.64349 14.8324 4.52755 14.4509C4.35363 13.9306 3.85508 13.5954 3.31015 13.5954H3.29855C2.5797 13.5954 2 13.0173 2 12.3006V11.6994C2 10.9827 2.5797 10.4046 3.29855 10.4046H3.31015C3.85508 10.4046 4.35363 10.0694 4.52755 9.54913C4.65508 9.16763 4.80581 8.80925 4.97972 8.45087C5.2232 7.96532 5.11885 7.37572 4.72464 6.98266L4.71304 6.9711C4.20289 6.46243 4.20289 5.65318 4.71304 5.14451L5.14204 4.71676C5.65218 4.20809 6.46378 4.20809 6.97392 4.71676C7.35653 5.09827 7.95942 5.21387 8.44637 4.95954C8.7942 4.77457 9.16523 4.62428 9.54784 4.50867C10.0696 4.33526 10.4058 3.83815 10.4058 3.2948C10.4058 2.57803 10.9855 2 11.7043 2H12.2957C13.0145 2 13.5942 2.57803 13.5942 3.2948C13.5942 3.83815 13.9304 4.33526 14.4522 4.50867C14.8348 4.63584 15.1942 4.78613 15.5536 4.95954C16.0406 5.20231 16.6319 5.09827 17.0261 4.7052L17.0377 4.69364C17.5478 4.18497 18.3594 4.18497 18.8696 4.69364L19.2985 5.12139C19.8087 5.63006 19.8087 6.43931 19.2985 6.94798L19.287 6.95954C18.9044 7.34104 18.7884 7.9422 19.0319 8.42775C19.2058 8.77457 19.3681 9.14451 19.4841 9.52601C19.658 10.0462 20.1565 10.3815 20.7015 10.3815C21.4203 10.3815 22 10.9595 22 11.6763V12.2775C22 12.9942 21.4203 13.5723 20.7015 13.5723C20.1565 13.5723 19.658 13.9075 19.4841 14.4277C19.3565 14.8092 19.2058 15.1676 19.0319 15.526C18.7884 16.0116 18.8928 16.6012 19.287 16.9942L19.2985 17.0058C19.8087 17.5145 19.8087 18.3237 19.2985 18.8324L18.8696 19.2601C18.3594 19.7688 17.5478 19.7688 17.0377 19.2601L17.0261 19.2486C16.6435 18.8671 16.0406 18.7514 15.5536 18.9942C15.2058 19.1676 14.8348 19.3295 14.4522 19.4451C13.9304 19.6647 13.5942 20.1618 13.5942 20.7052Z" stroke="#262A39" stroke-miterlimit="10" stroke-linejoin="round"/>
</svg>
