<svg width="24" height="24" viewBox="0 0 24 24" fill="none" xmlns="http://www.w3.org/2000/svg">
<path d="M12 3C17.0169 3 20.5613 7.92397 18.3067 12.1079C17.2099 14.1572 14.6405 18.066 13.5335 20.0963C12.8734 21.3012 11.1266 21.3012 10.4665 20.0963C9.34934 18.0565 6.79009 14.1477 5.69327 12.1079C3.43869 7.91448 6.98305 3 12 3Z" stroke="#262A39" stroke-miterlimit="10" stroke-linecap="round"/>
<path d="M12.0102 12.1362C13.6592 12.1362 14.996 10.8874 14.996 9.34692C14.996 7.80643 13.6592 6.55762 12.0102 6.55762C10.3612 6.55762 9.02441 7.80643 9.02441 9.34692C9.02441 10.8874 10.3612 12.1362 12.0102 12.1362Z" stroke="#262A39" stroke-miterlimit="10" stroke-linecap="round"/>
</svg>
