<svg width="31" height="32" viewBox="0 0 31 32" fill="none" xmlns="http://www.w3.org/2000/svg">
<path fill-rule="evenodd" clip-rule="evenodd" d="M30.9148 16.3637C30.9148 15.2291 30.8144 14.1382 30.628 13.0909H15.7729V19.28H24.2615C23.8959 21.28 22.7846 22.9746 21.1142 24.1091V28.1237H26.2116C29.1941 25.3382 30.9148 21.2364 30.9148 16.3637Z" fill="#4285F4"/>
<path fill-rule="evenodd" clip-rule="evenodd" d="M15.7728 32C20.0315 32 23.6018 30.5673 26.2115 28.1237L21.114 24.1091C19.7017 25.0691 17.895 25.6364 15.7728 25.6364C11.6647 25.6364 8.18757 22.8219 6.94726 19.04H1.67773V23.1855C4.27307 28.4146 9.60712 32 15.7728 32Z" fill="#34A853"/>
<path fill-rule="evenodd" clip-rule="evenodd" d="M6.94717 19.04C6.63172 18.08 6.45248 17.0546 6.45248 16C6.45248 14.9455 6.63172 13.92 6.94717 12.96V8.81458H1.67765C0.609401 10.9746 0 13.4182 0 16C0 18.5818 0.609401 21.0255 1.67765 23.1855L6.94717 19.04Z" fill="#FBBC05"/>
<path fill-rule="evenodd" clip-rule="evenodd" d="M15.7728 6.36363C18.0885 6.36363 20.1677 7.1709 21.8023 8.75635L26.3262 4.16727C23.5947 1.58545 20.0243 0 15.7728 0C9.60712 0 4.27307 3.58545 1.67773 8.81454L6.94726 12.96C8.18757 9.17817 11.6647 6.36363 15.7728 6.36363Z" fill="#EA4335"/>
</svg>
