<svg width="24" height="24" viewBox="0 0 24 24" fill="none" xmlns="http://www.w3.org/2000/svg">
<path d="M12.0118 13.6618C12.9269 13.6618 13.6687 12.9205 13.6687 12.006C13.6687 11.0915 12.9269 10.3501 12.0118 10.3501C11.0967 10.3501 10.3548 11.0915 10.3548 12.006C10.3548 12.9205 11.0967 13.6618 12.0118 13.6618Z" fill="#262A39"/>
<path d="M8.08981 11.7796C8.07789 11.8511 8.07788 11.9345 8.07788 12.0059C8.07788 14.1741 9.84213 15.9252 12.0117 15.9252" stroke="#262A39" stroke-miterlimit="10" stroke-linecap="round"/>
<path d="M12.0116 8.07483C14.1096 8.07483 15.8142 9.70687 15.9215 11.7797" stroke="#262A39" stroke-miterlimit="10" stroke-linecap="round"/>
<path d="M5.55082 11.7796C5.5389 11.8511 5.53891 11.9345 5.53891 12.0059C5.53891 15.5679 8.4356 18.4626 12.0118 18.4626" stroke="#262A39" stroke-miterlimit="10" stroke-linecap="round"/>
<path d="M12.0116 5.53741C15.5043 5.53741 18.3533 8.31308 18.4606 11.7797" stroke="#262A39" stroke-miterlimit="10" stroke-linecap="round"/>
<path d="M3.01187 11.7796C2.99995 11.8511 2.99995 11.9345 2.99995 12.0059C2.99995 16.9736 7.04103 21.0001 12.0119 21.0001" stroke="#262A39" stroke-miterlimit="10" stroke-linecap="round"/>
<path d="M12.0116 2.99994C16.9109 2.99994 20.8924 6.90731 20.9997 11.7796" stroke="#262A39" stroke-miterlimit="10" stroke-linecap="round"/>
</svg>
