<svg width="119" height="50" viewBox="0 0 119 50" fill="none" xmlns="http://www.w3.org/2000/svg">
<path d="M94 0H25C11.1929 0 0 11.1929 0 25C0 38.8071 11.1929 50 25 50H94C107.807 50 119 38.8071 119 25C119 11.1929 107.807 0 94 0Z" fill="#F1F1F1"/>
<path d="M29.0063 26.3573C25.7764 26.3573 23.1477 23.7813 23.1477 20.6162C23.1477 17.451 25.7764 14.875 29.0063 14.875C32.2361 14.875 34.8648 17.451 34.8648 20.6162C34.853 23.7813 32.2243 26.3573 29.0063 26.3573ZM29.0063 16.0302C26.4247 16.0302 24.3265 18.0864 24.3265 20.6162C24.3265 23.146 26.4247 25.2022 29.0063 25.2022C31.5878 25.2022 33.686 23.146 33.686 20.6162C33.686 18.0864 31.576 16.0302 29.0063 16.0302Z" fill="black"/>
<path d="M38 35.125H20V32.6992C20 29.9499 22.2868 27.7089 25.1041 27.7089H32.9077C35.7132 27.7089 38 29.9499 38 32.6992V35.125ZM21.1788 33.9698H36.8212V32.6992C36.8212 30.5852 35.0648 28.864 32.9077 28.864H25.1041C22.947 28.864 21.1788 30.5852 21.1788 32.6992V33.9698Z" fill="black"/>
<path d="M57.3057 27.7656C57.3057 27.4668 57.2588 27.2031 57.165 26.9746C57.0771 26.7402 56.9189 26.5293 56.6904 26.3418C56.4678 26.1543 56.1572 25.9756 55.7588 25.8057C55.3662 25.6357 54.8682 25.4629 54.2646 25.2871C53.6318 25.0996 53.0605 24.8916 52.5508 24.6631C52.041 24.4287 51.6045 24.1621 51.2412 23.8633C50.8779 23.5645 50.5996 23.2217 50.4062 22.835C50.2129 22.4482 50.1162 22.0059 50.1162 21.5078C50.1162 21.0098 50.2188 20.5498 50.4238 20.1279C50.6289 19.7061 50.9219 19.3398 51.3027 19.0293C51.6895 18.7129 52.1494 18.4668 52.6826 18.291C53.2158 18.1152 53.8105 18.0273 54.4668 18.0273C55.4277 18.0273 56.2422 18.2119 56.9102 18.5811C57.584 18.9443 58.0967 19.4219 58.4482 20.0137C58.7998 20.5996 58.9756 21.2266 58.9756 21.8945H57.2881C57.2881 21.4141 57.1855 20.9893 56.9805 20.6201C56.7754 20.2451 56.4648 19.9521 56.0488 19.7412C55.6328 19.5244 55.1055 19.416 54.4668 19.416C53.8633 19.416 53.3652 19.5068 52.9727 19.6885C52.5801 19.8701 52.2871 20.1162 52.0938 20.4268C51.9062 20.7373 51.8125 21.0918 51.8125 21.4902C51.8125 21.7598 51.8682 22.0059 51.9795 22.2285C52.0967 22.4453 52.2754 22.6475 52.5156 22.835C52.7617 23.0225 53.0723 23.1953 53.4473 23.3535C53.8281 23.5117 54.2822 23.6641 54.8096 23.8105C55.5361 24.0156 56.1631 24.2441 56.6904 24.4961C57.2178 24.748 57.6514 25.0322 57.9912 25.3486C58.3369 25.6592 58.5918 26.0137 58.7559 26.4121C58.9258 26.8047 59.0107 27.25 59.0107 27.748C59.0107 28.2695 58.9053 28.7412 58.6943 29.1631C58.4834 29.585 58.1816 29.9453 57.7891 30.2441C57.3965 30.543 56.9248 30.7744 56.374 30.9385C55.8291 31.0967 55.2197 31.1758 54.5459 31.1758C53.9541 31.1758 53.3711 31.0938 52.7969 30.9297C52.2285 30.7656 51.71 30.5195 51.2412 30.1914C50.7783 29.8633 50.4062 29.459 50.125 28.9785C49.8496 28.4922 49.7119 27.9297 49.7119 27.291H51.3994C51.3994 27.7305 51.4844 28.1084 51.6543 28.4248C51.8242 28.7354 52.0557 28.9932 52.3486 29.1982C52.6475 29.4033 52.9844 29.5557 53.3594 29.6553C53.7402 29.749 54.1357 29.7959 54.5459 29.7959C55.1377 29.7959 55.6387 29.7139 56.0488 29.5498C56.459 29.3857 56.7695 29.1514 56.9805 28.8467C57.1973 28.542 57.3057 28.1816 57.3057 27.7656ZM62.6934 21.4902V31H61.0586V21.4902H62.6934ZM60.9355 18.9678C60.9355 18.7041 61.0146 18.4814 61.1729 18.2998C61.3369 18.1182 61.5771 18.0273 61.8936 18.0273C62.2041 18.0273 62.4414 18.1182 62.6055 18.2998C62.7754 18.4814 62.8604 18.7041 62.8604 18.9678C62.8604 19.2197 62.7754 19.4365 62.6055 19.6182C62.4414 19.7939 62.2041 19.8818 61.8936 19.8818C61.5771 19.8818 61.3369 19.7939 61.1729 19.6182C61.0146 19.4365 60.9355 19.2197 60.9355 18.9678ZM71.4648 21.4902H72.9414V30.7979C72.9414 31.6357 72.7715 32.3506 72.4316 32.9424C72.0918 33.5342 71.6172 33.9824 71.0078 34.2871C70.4043 34.5977 69.707 34.7529 68.916 34.7529C68.5879 34.7529 68.2012 34.7002 67.7559 34.5947C67.3164 34.4951 66.8828 34.3223 66.4551 34.0762C66.0332 33.8359 65.6787 33.5107 65.3916 33.1006L66.2441 32.1338C66.6426 32.6143 67.0586 32.9482 67.4922 33.1357C67.9316 33.3232 68.3652 33.417 68.793 33.417C69.3086 33.417 69.7539 33.3203 70.1289 33.127C70.5039 32.9336 70.7939 32.6465 70.999 32.2656C71.21 31.8906 71.3154 31.4277 71.3154 30.877V23.582L71.4648 21.4902ZM64.917 26.3506V26.166C64.917 25.4395 65.002 24.7803 65.1719 24.1885C65.3477 23.5908 65.5967 23.0781 65.9189 22.6504C66.2471 22.2227 66.6426 21.8945 67.1055 21.666C67.5684 21.4316 68.0898 21.3145 68.6699 21.3145C69.2676 21.3145 69.7891 21.4199 70.2344 21.6309C70.6855 21.8359 71.0664 22.1377 71.377 22.5361C71.6934 22.9287 71.9424 23.4033 72.124 23.96C72.3057 24.5166 72.4316 25.1465 72.502 25.8496V26.6582C72.4375 27.3555 72.3115 27.9824 72.124 28.5391C71.9424 29.0957 71.6934 29.5703 71.377 29.9629C71.0664 30.3555 70.6855 30.6572 70.2344 30.8682C69.7832 31.0732 69.2559 31.1758 68.6523 31.1758C68.084 31.1758 67.5684 31.0557 67.1055 30.8154C66.6484 30.5752 66.2559 30.2383 65.9277 29.8047C65.5996 29.3711 65.3477 28.8613 65.1719 28.2754C65.002 27.6836 64.917 27.042 64.917 26.3506ZM66.543 26.166V26.3506C66.543 26.8252 66.5898 27.2705 66.6836 27.6865C66.7832 28.1025 66.9326 28.4688 67.1318 28.7852C67.3369 29.1016 67.5977 29.3506 67.9141 29.5322C68.2305 29.708 68.6084 29.7959 69.0479 29.7959C69.5869 29.7959 70.0322 29.6816 70.3838 29.4531C70.7354 29.2246 71.0137 28.9229 71.2188 28.5479C71.4297 28.1729 71.5938 27.7656 71.7109 27.3262V25.208C71.6465 24.8857 71.5469 24.5752 71.4121 24.2764C71.2832 23.9717 71.1133 23.7021 70.9023 23.4678C70.6973 23.2275 70.4424 23.0371 70.1377 22.8965C69.833 22.7559 69.4756 22.6855 69.0654 22.6855C68.6201 22.6855 68.2363 22.7793 67.9141 22.9668C67.5977 23.1484 67.3369 23.4004 67.1318 23.7227C66.9326 24.0391 66.7832 24.4082 66.6836 24.8301C66.5898 25.2461 66.543 25.6914 66.543 26.166ZM77.0371 23.5205V31H75.4111V21.4902H76.9492L77.0371 23.5205ZM76.6504 25.8848L75.9736 25.8584C75.9795 25.208 76.0762 24.6074 76.2637 24.0566C76.4512 23.5 76.7148 23.0166 77.0547 22.6064C77.3945 22.1963 77.7988 21.8799 78.2676 21.6572C78.7422 21.4287 79.2666 21.3145 79.8408 21.3145C80.3096 21.3145 80.7314 21.3789 81.1064 21.5078C81.4814 21.6309 81.8008 21.8301 82.0645 22.1055C82.334 22.3809 82.5391 22.7383 82.6797 23.1777C82.8203 23.6113 82.8906 24.1416 82.8906 24.7686V31H81.2559V24.751C81.2559 24.2529 81.1826 23.8545 81.0361 23.5557C80.8896 23.251 80.6758 23.0312 80.3945 22.8965C80.1133 22.7559 79.7676 22.6855 79.3574 22.6855C78.9531 22.6855 78.584 22.7705 78.25 22.9404C77.9219 23.1104 77.6377 23.3447 77.3975 23.6436C77.1631 23.9424 76.9785 24.2852 76.8438 24.6719C76.7148 25.0527 76.6504 25.457 76.6504 25.8848ZM91.8906 18.2031V31H90.1943V18.2031H91.8906ZM96.3555 23.5205V31H94.7295V21.4902H96.2676L96.3555 23.5205ZM95.9688 25.8848L95.292 25.8584C95.2979 25.208 95.3945 24.6074 95.582 24.0566C95.7695 23.5 96.0332 23.0166 96.373 22.6064C96.7129 22.1963 97.1172 21.8799 97.5859 21.6572C98.0605 21.4287 98.585 21.3145 99.1592 21.3145C99.6279 21.3145 100.05 21.3789 100.425 21.5078C100.8 21.6309 101.119 21.8301 101.383 22.1055C101.652 22.3809 101.857 22.7383 101.998 23.1777C102.139 23.6113 102.209 24.1416 102.209 24.7686V31H100.574V24.751C100.574 24.2529 100.501 23.8545 100.354 23.5557C100.208 23.251 99.9941 23.0312 99.7129 22.8965C99.4316 22.7559 99.0859 22.6855 98.6758 22.6855C98.2715 22.6855 97.9023 22.7705 97.5684 22.9404C97.2402 23.1104 96.9561 23.3447 96.7158 23.6436C96.4814 23.9424 96.2969 24.2852 96.1621 24.6719C96.0332 25.0527 95.9688 25.457 95.9688 25.8848Z" fill="black"/>
</svg>
