<svg width="24" height="24" viewBox="0 0 24 24" fill="none" xmlns="http://www.w3.org/2000/svg">
<path d="M12 21C16.9705 21 21 16.9706 21 12C21 7.02943 16.9705 3 12 3C7.02942 3 3 7.02943 3 12C3 16.9706 7.02942 21 12 21Z" stroke="#262A39" stroke-miterlimit="10" stroke-linecap="round"/>
<path d="M3 12H21" stroke="#262A39" stroke-miterlimit="10" stroke-linecap="round"/>
<path d="M11.9995 3V21" stroke="#262A39" stroke-miterlimit="10" stroke-linecap="round"/>
<path d="M6.24371 5.09027C6.36728 7.4072 9.78605 8.00446 9.78605 11.9999C9.78605 15.9953 6.24371 16.6543 6.24371 18.7138" stroke="#262A39" stroke-miterlimit="10" stroke-linecap="round"/>
<path d="M17.8906 18.7037C17.7671 16.3868 14.3483 15.7895 14.3483 11.7941C14.3483 7.79867 17.8906 7.13963 17.8906 5.08014" stroke="#262A39" stroke-miterlimit="10" stroke-linecap="round"/>
</svg>
