<svg width="24" height="24" viewBox="0 0 24 24" fill="none" xmlns="http://www.w3.org/2000/svg">
<path d="M17.9821 10.5684C17.9821 13.5758 16.2479 16.1837 13.7235 17.3933C12.7466 17.8816 11.649 18.1479 10.4856 18.1479C9.3331 18.1479 8.23551 17.8816 7.25865 17.3933C4.74517 16.1837 3 13.5758 3 10.5684C3 6.38471 6.35863 3 10.4856 3C14.6235 3 17.9821 6.38471 17.9821 10.5684Z" stroke="#262A39" stroke-miterlimit="10" stroke-linecap="round"/>
<path d="M18.0697 10.4688C19.8148 11.412 21.0002 13.2653 21.0002 15.4071C21.0002 18.4922 18.5197 21.0002 15.4684 21.0002C13.4378 21.0002 11.6597 19.8904 10.6938 18.2369" stroke="#262A39" stroke-miterlimit="10" stroke-linecap="round"/>
<path d="M10.4854 12.0055C11.716 12.0055 12.7135 10.9969 12.7135 9.75277C12.7135 8.5086 11.716 7.5 10.4854 7.5C9.25488 7.5 8.25732 8.5086 8.25732 9.75277C8.25732 10.9969 9.25488 12.0055 10.4854 12.0055Z" fill="#262A39"/>
<path d="M13.7236 15.185V17.3934C12.7467 17.8817 11.6491 18.148 10.4857 18.148C9.33323 18.148 8.23564 17.8817 7.25879 17.3934V15.185C7.25879 13.8755 8.3015 12.8213 9.58568 12.8213H11.3967C12.6809 12.8213 13.7236 13.8755 13.7236 15.185Z" fill="#262A39"/>
</svg>
