<svg width="24" height="24" viewBox="0 0 24 24" fill="none" xmlns="http://www.w3.org/2000/svg">
<path d="M11.9941 19.9884H5.06606C3.48082 19.9884 2.48271 18.2775 3.2812 16.9158L6.74523 10.9685L10.2093 5.02128C11.0078 3.65957 12.9922 3.65957 13.779 5.02128L17.243 10.9685L20.7188 16.9274C21.5173 18.2891 20.5192 20 18.9339 20H11.9941V19.9884Z" fill="#F7803E"/>
<path d="M11.9941 8.37317V13.7269" stroke="#E9ECF1" stroke-miterlimit="10" stroke-linecap="round"/>
<path d="M11.994 16.974C12.4804 16.974 12.8747 16.5832 12.8747 16.1012C12.8747 15.6191 12.4804 15.2283 11.994 15.2283C11.5076 15.2283 11.1133 15.6191 11.1133 16.1012C11.1133 16.5832 11.5076 16.974 11.994 16.974Z" fill="#E9ECF1"/>
</svg>
