<svg width="24" height="24" viewBox="0 0 24 24" fill="none" xmlns="http://www.w3.org/2000/svg">
<path d="M14.8179 8L12.1157 12.6525" stroke="#262A39" stroke-miterlimit="10" stroke-linecap="round"/>
<path d="M4.29661 12H3" stroke="#262A39" stroke-miterlimit="10" stroke-linecap="round"/>
<path d="M11.9995 19.7034V21" stroke="#262A39" stroke-miterlimit="10" stroke-linecap="round"/>
<path d="M19.7036 12H20.9893" stroke="#262A39" stroke-miterlimit="10" stroke-linecap="round"/>
<path d="M11.9995 4.2967V3.01099" stroke="#262A39" stroke-miterlimit="10" stroke-linecap="round"/>
<path d="M6.55519 6.55829L5.63835 5.64145" stroke="#262A39" stroke-miterlimit="10" stroke-linecap="round"/>
<path d="M6.55486 17.4522L5.63801 18.369" stroke="#262A39" stroke-miterlimit="10" stroke-linecap="round"/>
<path d="M17.4496 17.4527L18.3587 18.3618" stroke="#262A39" stroke-miterlimit="10" stroke-linecap="round"/>
<path d="M17.449 6.55801L18.3582 5.64887" stroke="#262A39" stroke-miterlimit="10" stroke-linecap="round"/>
<path d="M12.1162 12.6526H9" stroke="#262A39" stroke-miterlimit="10" stroke-linecap="round"/>
<path d="M12 21C16.9706 21 21 16.9706 21 12C21 7.02944 16.9706 3 12 3C7.02944 3 3 7.02944 3 12C3 16.9706 7.02944 21 12 21Z" stroke="#262A39" stroke-miterlimit="10"/>
</svg>
