<svg width="24" height="24" viewBox="0 0 24 24" fill="none" xmlns="http://www.w3.org/2000/svg">
<path d="M21 16.1275V12.3421C21 8.83348 18.3322 6 15.0519 6H8.9481C5.65744 6 3 8.84455 3 12.3421V15.8951C3 17.5553 4.86851 18.3965 5.97924 17.2343L7.6609 15.4855C7.99308 15.1424 8.42907 14.9543 8.88582 14.9543H14.7197C15.1557 14.9543 15.5709 15.1313 15.8927 15.4413L18.0623 17.5221C19.2042 18.5957 21 17.7435 21 16.1275Z" stroke="#262A39" stroke-miterlimit="10" stroke-linecap="round"/>
<path d="M10.2669 10.5602H6.68555" stroke="#262A39" stroke-miterlimit="10" stroke-linecap="round"/>
<path d="M8.47128 8.64539V12.4639" stroke="#262A39" stroke-miterlimit="10" stroke-linecap="round"/>
<path d="M17.3151 10.5602H13.7442" stroke="#262A39" stroke-miterlimit="10" stroke-linecap="round"/>
<path d="M15.5299 8.64539V12.4639" stroke="#262A39" stroke-miterlimit="10" stroke-linecap="round"/>
</svg>
