<svg width="24" height="24" viewBox="0 0 24 24" fill="none" xmlns="http://www.w3.org/2000/svg">
<path d="M15.7586 21C15.0016 21 14.3883 20.3741 14.3883 19.6016V14.7673C14.3883 14.1281 13.8793 13.5954 13.2398 13.5954H10.7602C10.1207 13.5954 9.61175 14.1281 9.61175 14.7673V19.6016C9.61175 20.3741 8.99837 21 8.24144 21H5.37031C4.61338 21 4 20.3741 4 19.6016V9.387C4 8.57462 4.43067 7.84215 5.1354 7.45593L10.9951 4.25969C11.6215 3.91344 12.3785 3.91344 13.0049 4.25969L18.8646 7.45593C19.5563 7.84215 20 8.57462 20 9.387V19.6016C20 20.3741 19.3866 21 18.6297 21H15.7586Z" stroke="#262A39" stroke-miterlimit="10"/>
</svg>
