<svg width="24" height="24" viewBox="0 0 24 24" fill="none" xmlns="http://www.w3.org/2000/svg">
<path d="M13.8751 16.2911V19.2993C13.8751 20.243 13.0369 21 12.016 21H4.85908C3.82745 21 3 20.2332 3 19.2993V9.40963C3 8.46588 3.8382 7.70892 4.85908 7.70892H10.1354" stroke="#262A39" stroke-miterlimit="10" stroke-linecap="round"/>
<path d="M19.1405 3H11.9836C10.952 3 10.1245 3.76679 10.1245 4.70071V14.5805C10.1245 15.5243 10.9627 16.2812 11.9836 16.2812H19.1405C20.1721 16.2812 20.9996 15.5144 20.9996 14.5805V4.70071C21.0103 3.76679 20.1721 3 19.1405 3Z" stroke="#262A39" stroke-miterlimit="10" stroke-linecap="round"/>
<path d="M12.521 5.52643H15.5621" stroke="#262A39" stroke-miterlimit="10" stroke-linecap="round"/>
<path d="M12.521 7.70892H18.7645" stroke="#262A39" stroke-miterlimit="10" stroke-linecap="round"/>
<path d="M12.521 9.8913H18.7645" stroke="#262A39" stroke-miterlimit="10" stroke-linecap="round"/>
<path d="M12.521 11.8476H18.7645" stroke="#262A39" stroke-miterlimit="10" stroke-linecap="round"/>
<path d="M5.31055 18.0802H7.9326" stroke="#262A39" stroke-miterlimit="10" stroke-linecap="round"/>
<path d="M5.31055 16.2911H7.9326" stroke="#262A39" stroke-miterlimit="10" stroke-linecap="round"/>
<path d="M5.31055 14.5018H7.9326" stroke="#262A39" stroke-miterlimit="10" stroke-linecap="round"/>
</svg>
