<svg width="24" height="24" viewBox="0 0 24 24" fill="none" xmlns="http://www.w3.org/2000/svg">
<path d="M11.6016 12.3521L14.3841 13.7947C15.2426 14.2363 15.2426 15.4041 14.3841 15.8457L11.6016 17.2882C11.3947 17.3962 11.2293 17.5532 11.1155 17.7494L9.59493 20.3892C9.12946 21.2037 7.89855 21.2037 7.43308 20.3892L5.91254 17.7494C5.79876 17.5532 5.63326 17.3962 5.42638 17.2882L2.6439 15.8457C1.78537 15.4041 1.78537 14.2363 2.6439 13.7947L5.42638 12.3521C5.63326 12.2442 5.79876 12.0872 5.91254 11.8909L7.43308 9.25114C7.89855 8.43663 9.12946 8.43663 9.59493 9.25114L11.1155 11.8909C11.2293 12.0872 11.3947 12.2442 11.6016 12.3521Z" stroke="#262A39" stroke-miterlimit="10" stroke-linecap="round"/>
<path d="M21.0149 8.10287C22.3286 8.77998 22.3286 10.566 21.0149 11.2431C20.6943 11.4099 20.4357 11.6553 20.2598 11.9595C19.5461 13.2058 17.6635 13.2058 16.9498 11.9595C16.774 11.6553 16.5154 11.4099 16.1947 11.2431C14.8811 10.566 14.8811 8.77998 16.1947 8.10287C16.5154 7.93604 16.774 7.69071 16.9498 7.3865C17.6635 6.14021 19.5461 6.14021 20.2598 7.3865C20.4357 7.69071 20.6943 7.93604 21.0149 8.10287Z" stroke="#262A39" stroke-miterlimit="10" stroke-linecap="round"/>
<path d="M12.1605 6.06174C13.0517 6.06174 13.7741 5.37635 13.7741 4.53087C13.7741 3.68539 13.0517 3 12.1605 3C11.2693 3 10.5469 3.68539 10.5469 4.53087C10.5469 5.37635 11.2693 6.06174 12.1605 6.06174Z" stroke="#262A39" stroke-miterlimit="10" stroke-linecap="round"/>
</svg>
